<?xml version="1.0" encoding="iso-8859-1"?>
<!-- Generator: Adobe Illustrator 19.0.0, SVG Export Plug-In . SVG Version: 6.00 Build 0)  -->
<svg version="1.1" id="Layer_1" xmlns="http://www.w3.org/2000/svg" xmlns:xlink="http://www.w3.org/1999/xlink" x="0px" y="0px"
	 viewBox="0 0 512 512" style="enable-background:new 0 0 512 512;" xml:space="preserve">
<g>
	<g>
		<path d="M389.376,0H122.624c-5.632,0-10.199,4.566-10.199,10.199v491.602c0,5.633,4.567,10.199,10.199,10.199h266.752
			c5.632,0,10.199-4.566,10.199-10.199V10.199C399.575,4.566,395.008,0,389.376,0z M297.926,491.602h-31.727v-31.193
			c0-5.633-4.567-10.199-10.199-10.199c-5.632,0-10.199,4.566-10.199,10.199v31.193h-31.726v-85.383h83.851V491.602z
			 M379.178,491.602h-0.001h-60.854V396.02c0-5.633-4.567-10.199-10.199-10.199H203.876c-5.632,0-10.199,4.566-10.199,10.199v95.582
			h-60.854V20.398h246.355V491.602z"/>
	</g>
</g>
<g>
	<g>
		<path d="M230.96,43.436h-63.367c-5.632,0-10.199,4.566-10.199,10.199v63.367c0,5.633,4.567,10.199,10.199,10.199h63.367
			c5.632,0,10.199-4.566,10.199-10.199V53.636C241.159,48.003,236.592,43.436,230.96,43.436z M220.761,106.803h-42.968V63.835
			h42.968V106.803z"/>
	</g>
</g>
<g>
	<g>
		<path d="M344.407,43.436H281.04c-5.632,0-10.199,4.566-10.199,10.199v63.367c0,5.633,4.566,10.199,10.199,10.199h63.367
			c5.632,0,10.199-4.566,10.199-10.199V53.636C354.606,48.003,350.039,43.436,344.407,43.436z M334.208,106.803h-42.968V63.835
			h42.968V106.803z"/>
	</g>
</g>
<g>
	<g>
		<path d="M230.96,155.861h-63.367c-5.632,0-10.199,4.566-10.199,10.199v63.367c0,5.633,4.567,10.199,10.199,10.199h63.367
			c5.632,0,10.199-4.566,10.199-10.199V166.06C241.159,160.427,236.592,155.861,230.96,155.861z M220.761,219.228h-42.968V176.26
			h42.968V219.228z"/>
	</g>
</g>
<g>
	<g>
		<path d="M344.407,155.861H281.04c-5.632,0-10.199,4.566-10.199,10.199v63.367c0,5.633,4.566,10.199,10.199,10.199h63.367
			c5.632,0,10.199-4.566,10.199-10.199V166.06C354.606,160.427,350.039,155.861,344.407,155.861z M334.208,219.228h-42.968V176.26
			h42.968V219.228z"/>
	</g>
</g>
<g>
	<g>
		<path d="M230.96,268.286h-63.367c-5.632,0-10.199,4.566-10.199,10.199v63.367c0,5.633,4.567,10.199,10.199,10.199h63.367
			c5.632,0,10.199-4.566,10.199-10.199v-63.367C241.159,272.852,236.592,268.286,230.96,268.286z M220.761,331.653h-42.968v-42.968
			h42.968V331.653z"/>
	</g>
</g>
<g>
	<g>
		<path d="M344.407,268.286H281.04c-5.632,0-10.199,4.566-10.199,10.199v63.367c0,5.633,4.566,10.199,10.199,10.199h63.367
			c5.632,0,10.199-4.566,10.199-10.199v-63.367C354.606,272.852,350.039,268.286,344.407,268.286z M334.208,331.653h-42.968v-42.968
			h42.968V331.653z"/>
	</g>
</g>
<g>
	<g>
		<path d="M256,418.526c-5.632,0-10.199,4.566-10.199,10.199v1.022c0,5.633,4.567,10.199,10.199,10.199
			c5.632,0,10.199-4.566,10.199-10.199v-1.022C266.199,423.093,261.632,418.526,256,418.526z"/>
	</g>
</g>
<g>
</g>
<g>
</g>
<g>
</g>
<g>
</g>
<g>
</g>
<g>
</g>
<g>
</g>
<g>
</g>
<g>
</g>
<g>
</g>
<g>
</g>
<g>
</g>
<g>
</g>
<g>
</g>
<g>
</g>
</svg>
