<svg width="128px" height="128px" viewBox="0 0 128 128" fill="none" xmlns="http://www.w3.org/2000/svg">
<path d="M58.0671 49.3168C64.9267 49.3168 70.4876 54.8776 70.4876 61.7372V83.4634C70.4876 90.323 64.9267 95.8839 58.0671 95.8839H44.7366L36.9147 105.539C36.3729 106.208 35.2915 105.825 35.2915 104.964V95.8839H35.258C28.3983 95.8839 22.8375 90.323 22.8375 83.4634V61.7372C22.8375 54.8776 28.3984 49.3168 35.258 49.3168H58.0671Z" fill="black"/>
<path d="M71.6739 28.3953C64.8142 28.3953 59.2534 33.9561 59.2534 40.8157V74.4544C59.2534 81.314 64.8142 86.8749 71.6739 86.8749H87.9038L98.2413 99.6352C98.7831 100.304 99.8645 99.9209 99.8645 99.0602V86.8749H99.8978C106.757 86.8749 112.318 81.314 112.318 74.4544V40.8157C112.318 33.9561 106.757 28.3953 99.8978 28.3953H71.6739Z" fill="black"/>
<path fill-rule="evenodd" clip-rule="evenodd" d="M52.3705 45.7502C59.4332 45.7502 65.1586 51.4757 65.1586 58.5383V79.5292C65.1586 86.5919 59.4332 92.3173 52.3705 92.3173H39.4075L29.9622 103.976V92.313C23.0541 92.1357 17.5086 86.4801 17.5086 79.5293V58.5383C17.5086 51.4757 23.234 45.7502 30.2967 45.7502H52.3705Z" fill="white"/>
<path fill-rule="evenodd" clip-rule="evenodd" d="M39.4075 92.3173H52.3705C59.4332 92.3173 65.1586 86.5919 65.1586 79.5292V58.5383C65.1586 51.4756 59.4332 45.7502 52.3705 45.7502H30.2966C23.234 45.7502 17.5086 51.4756 17.5086 58.5383V79.5292C17.5086 86.4801 23.0541 92.1357 29.9622 92.313V103.976L39.4075 92.3173ZM28.1353 93.9854C21.0882 92.9405 15.6817 86.8665 15.6817 79.5292V58.5383C15.6817 50.4667 22.225 43.9233 30.2966 43.9233H52.3705C60.4421 43.9233 66.9855 50.4667 66.9855 58.5383V79.5292C66.9855 87.6008 60.4421 94.1442 52.3705 94.1442H40.2786L31.3817 105.126C30.8946 105.728 30.0816 105.957 29.3522 105.698C28.6228 105.44 28.1353 104.75 28.1353 103.976V93.9854Z" fill="black"/>
<path fill-rule="evenodd" clip-rule="evenodd" d="M18.5054 58.8763C18.5054 52.3181 23.8219 47.0016 30.3801 47.0016H52.2868C58.845 47.0016 64.1614 52.3181 64.1614 58.8762V79.358C64.1614 85.9162 58.845 91.2326 52.2868 91.2326H39.1989C38.6945 91.2326 38.2855 90.8237 38.2855 90.3192C38.2855 89.8147 38.6945 89.4058 39.1989 89.4058H52.2868C57.836 89.4058 62.3346 84.9072 62.3346 79.358V58.8762C62.3346 53.327 57.836 48.8285 52.2868 48.8285H30.3801C24.8309 48.8285 20.3323 53.327 20.3323 58.8763V79.358C20.3323 84.9072 24.8309 89.4058 30.3801 89.4058H31.274C31.7785 89.4058 32.1875 89.8147 32.1875 90.3192C32.1875 90.8237 31.7785 91.2326 31.274 91.2326H30.3801C23.8219 91.2326 18.5054 85.9162 18.5054 79.358V58.8763Z" fill="black"/>
<path fill-rule="evenodd" clip-rule="evenodd" d="M24.887 65.3869C24.887 64.6302 25.5005 64.0167 26.2572 64.0167H37.5304C38.2872 64.0167 38.9006 64.6302 38.9006 65.3869C38.9006 66.1436 38.2872 66.7571 37.5304 66.7571H26.2572C25.5005 66.7571 24.887 66.1436 24.887 65.3869Z" fill="black"/>
<path fill-rule="evenodd" clip-rule="evenodd" d="M24.887 56.7231C24.887 55.9663 25.5005 55.3529 26.2572 55.3529H52.8212C53.5779 55.3529 54.1913 55.9663 54.1913 56.7231C54.1913 57.4798 53.5779 58.0932 52.8212 58.0932H26.2572C25.5005 58.0932 24.887 57.4798 24.887 56.7231Z" fill="black"/>
<path fill-rule="evenodd" clip-rule="evenodd" d="M24.887 73.509C24.887 72.7523 25.5005 72.1389 26.2572 72.1389H30.9472C31.7039 72.1389 32.3173 72.7523 32.3173 73.509C32.3173 74.2657 31.7039 74.8792 30.9472 74.8792H26.2572C25.5005 74.8792 24.887 74.2657 24.887 73.509Z" fill="black"/>
<path fill-rule="evenodd" clip-rule="evenodd" d="M64.9501 23.9475C57.8875 23.9475 52.162 29.6729 52.162 36.7356V69.639C52.162 76.7017 57.8875 82.4271 64.9501 82.4271H80.8128L92.7735 97.191V82.4228C99.6814 82.2453 105.227 76.5898 105.227 69.639V36.7356C105.227 29.6729 99.5015 23.9475 92.4388 23.9475H64.9501Z" fill="white"/>
<path fill-rule="evenodd" clip-rule="evenodd" d="M80.8129 82.4271H64.9502C57.8875 82.4271 52.1621 76.7017 52.1621 69.639V36.7356C52.1621 29.6729 57.8875 23.9475 64.9502 23.9475H92.4388C99.5015 23.9475 105.227 29.6729 105.227 36.7356V69.639C105.227 76.5897 99.6815 82.2453 92.7735 82.4228V97.191L80.8129 82.4271ZM94.6004 84.0951C101.647 83.0502 107.054 76.9762 107.054 69.639V36.7356C107.054 28.6639 100.51 22.1206 92.4388 22.1206H64.9502C56.8785 22.1206 50.3352 28.664 50.3352 36.7356V69.639C50.3352 77.7106 56.8785 84.254 64.9502 84.254H79.9417L91.354 98.341C91.8411 98.9422 92.6541 99.1714 93.3835 98.913C94.1129 98.6547 94.6004 97.9648 94.6004 97.191V84.0951Z" fill="black"/>
<path fill-rule="evenodd" clip-rule="evenodd" d="M53.3154 37.3325C53.3154 30.7743 58.6318 25.4579 65.19 25.4579H92.0649C98.623 25.4579 103.94 30.7744 103.94 37.3325V68.7732C103.94 75.3314 98.623 80.6478 92.0648 80.6478H91.7427C91.2382 80.6478 90.8293 80.2389 90.8293 79.7344C90.8293 79.2299 91.2382 78.821 91.7427 78.821H92.0648C97.6141 78.821 102.113 74.3224 102.113 68.7732V37.3325C102.113 31.7833 97.6141 27.2848 92.0649 27.2848H65.19C59.6408 27.2848 55.1422 31.7833 55.1422 37.3325V68.7732C55.1422 74.3224 59.6408 78.821 65.19 78.821H81.5511C82.0555 78.821 82.4645 79.2299 82.4645 79.7344C82.4645 80.2389 82.0555 80.6478 81.5511 80.6478H65.19C58.6318 80.6478 53.3154 75.3314 53.3154 68.7732V37.3325Z" fill="black"/>
<path fill-rule="evenodd" clip-rule="evenodd" d="M61.7968 55.8616C61.7968 54.8527 62.6147 54.0348 63.6237 54.0348H93.778C94.7869 54.0348 95.6048 54.8527 95.6048 55.8616C95.6048 56.8706 94.7869 57.6885 93.778 57.6885H63.6237C62.6147 57.6885 61.7968 56.8706 61.7968 55.8616Z" fill="black"/>
<path fill-rule="evenodd" clip-rule="evenodd" d="M61.7968 46.3689C61.7968 45.3599 62.6147 44.542 63.6237 44.542H93.778C94.7869 44.542 95.6048 45.3599 95.6048 46.3689C95.6048 47.3778 94.7869 48.1957 93.778 48.1957H63.6237C62.6147 48.1957 61.7968 47.3778 61.7968 46.3689Z" fill="black"/>
<path fill-rule="evenodd" clip-rule="evenodd" d="M61.7966 37.2356C61.7966 36.2266 62.6145 35.4087 63.6235 35.4087H93.7778C94.7868 35.4087 95.6047 36.2266 95.6047 37.2356C95.6047 38.2445 94.7868 39.0624 93.7778 39.0624H63.6235C62.6145 39.0624 61.7966 38.2445 61.7966 37.2356Z" fill="black"/>
<path fill-rule="evenodd" clip-rule="evenodd" d="M61.7968 64.76C61.7968 63.751 62.6147 62.9331 63.6237 62.9331H79.9932C81.0021 62.9331 81.82 63.751 81.82 64.76C81.82 65.7689 81.0021 66.5869 79.9932 66.5869H63.6237C62.6147 66.5869 61.7968 65.7689 61.7968 64.76Z" fill="black"/>
</svg>
