<?xml version="1.0" encoding="UTF-8"?> <!-- Creator: CorelDRAW X8 --> <svg xmlns="http://www.w3.org/2000/svg" xmlns:xlink="http://www.w3.org/1999/xlink" xml:space="preserve" width="128.56mm" height="118.939mm" style="shape-rendering:geometricPrecision; text-rendering:geometricPrecision; image-rendering:optimizeQuality; fill-rule:evenodd; clip-rule:evenodd" viewBox="0 0 12856 11894"> <defs> <style type="text/css"> <![CDATA[ .fil20 {fill:#FEFEFE;fill-rule:nonzero} .fil8 {fill:#5F6FA9;fill-rule:nonzero} .fil9 {fill:#6A4537;fill-rule:nonzero} .fil2 {fill:#774E3E;fill-rule:nonzero} .fil18 {fill:#999999;fill-rule:nonzero} .fil0 {fill:#B3B3B3;fill-rule:nonzero} .fil16 {fill:#C1D54E;fill-rule:nonzero} .fil14 {fill:#C1D54E;fill-rule:nonzero} .fil19 {fill:#CCCCCC;fill-rule:nonzero} .fil11 {fill:#CF5300;fill-rule:nonzero} .fil12 {fill:#DBD4D1;fill-rule:nonzero} .fil17 {fill:#DDDDDD;fill-rule:nonzero} .fil10 {fill:#DEBDA9;fill-rule:nonzero} .fil13 {fill:#E1E8EA;fill-rule:nonzero} .fil6 {fill:#E3E3E3;fill-rule:nonzero} .fil4 {fill:#E6B69B;fill-rule:nonzero} .fil15 {fill:whitesmoke;fill-rule:nonzero} .fil3 {fill:#F9D5BE;fill-rule:nonzero} .fil7 {fill:#FF6600;fill-rule:nonzero} .fil5 {fill:white;fill-rule:nonzero} .fil1 {fill:white;fill-rule:nonzero} ]]> </style> </defs> <g id="Capa_x0020_1"> <metadata id="CorelCorpID_0Corel-Layer"></metadata> <g id="_1970492768720"> <path class="fil0" d="M6416 1125c-2864,0 -5195,2330 -5195,5195 0,2864 2331,5195 5195,5195 2865,0 5195,-2331 5195,-5195 0,-2865 -2330,-5195 -5195,-5195zm0 10425c-2884,0 -5230,-2346 -5230,-5230 0,-2884 2346,-5231 5230,-5231 2884,0 5230,2347 5230,5231 0,2884 -2346,5230 -5230,5230z"></path> <path class="fil1" d="M10726 7314c0,4548 -1930,4580 -4310,4580 -2380,0 -4310,-32 -4310,-4580 0,-2381 1930,-4310 4310,-4310 2380,0 4310,1929 4310,4310z"></path> <path class="fil2" d="M6416 3621l0 0c-908,0 -1742,732 -1742,1635 0,439 83,2689 -186,2873 -105,72 969,569 1926,579 956,10 1993,-469 1930,-579 -396,-699 -186,-2434 -186,-2873 0,-903 -834,-1635 -1742,-1635z"></path> <path class="fil3" d="M9670 9592c-36,-684 -1035,-819 -1809,-945 -414,-67 -544,-497 -576,-883 -262,243 -601,492 -869,492 -265,0 -605,-250 -869,-493 -31,386 -161,817 -576,884 -774,126 -1773,261 -1809,945 -18,351 -22,986 -22,1522 790,770 1965,780 3276,780 1312,0 2486,-10 3277,-780 0,-536 -5,-1171 -23,-1522z"></path> <path class="fil3" d="M7285 7764c-5,-64 -9,-128 -10,-188l-1718 0c-1,60 -4,123 -10,187 264,243 604,493 869,493 268,0 607,-249 869,-492z"></path> <path class="fil4" d="M6416 8256c-265,0 -605,-250 -869,-493 6,-64 9,-127 10,-187l1718 0c1,60 5,124 10,188 -262,243 -601,492 -869,492z"></path> <path class="fil3" d="M8141 5695c-86,-30 -164,20 -225,85 3,-85 2,-150 -1,-184 0,-1014 -795,-1590 -1499,-1591 -704,1 -1499,577 -1499,1591 -3,34 -3,99 -1,184 -61,-65 -139,-115 -224,-85 -137,47 -69,877 328,1026 13,4 22,5 33,8 52,192 121,378 214,532 108,178 733,873 1149,873 422,0 1041,-695 1149,-873 93,-154 163,-340 214,-532 11,-3 21,-4 33,-8 397,-149 465,-979 329,-1026z"></path> <path class="fil5" d="M9572 9598c-35,-664 -1004,-794 -1755,-917 -228,-37 -367,-188 -450,-380l-951 936 -951 -936c-83,192 -222,343 -450,380 -751,123 -1720,253 -1755,917 -19,366 -23,1059 -22,1607 788,680 1920,689 3178,689 1258,0 2390,-9 3178,-689 1,-548 -2,-1241 -22,-1607z"></path> <polygon class="fil6" points="6416,10283 6321,10135 6321,9397 6512,9397 6512,10137 "></polygon> <path class="fil5" d="M6474 9618c0,31 -26,57 -58,57 -32,0 -57,-26 -57,-57 0,-32 25,-58 57,-58 32,0 58,26 58,58z"></path> <path class="fil5" d="M6474 10045c0,31 -26,57 -58,57 -32,0 -57,-26 -57,-57 0,-32 25,-58 57,-58 32,0 58,26 58,58z"></path> <path class="fil7" d="M9670 9592c-36,-684 -1035,-819 -1809,-945 -235,-38 -379,-194 -465,-391l-39 591 -941 1436 -932 -1436 -48 -591c-86,197 -229,353 -465,391 -774,126 -1773,261 -1809,945 -18,351 -22,986 -22,1522 790,770 1965,780 3276,780 1312,0 2486,-10 3277,-780 0,-536 -5,-1171 -23,-1522z"></path> <path class="fil8" d="M7740 8615c-58,-23 -110,-55 -155,-93 19,-6 37,-12 55,-17l100 110zm-2634 -6l104 -114c16,5 33,11 50,16 -45,40 -96,74 -154,98z"></path> <path class="fil9" d="M7585 8522c-82,-70 -143,-162 -189,-266l0 0c-5,-12 -10,-23 -14,-35l258 284c-18,5 -36,11 -55,17zm-2325 -11c-17,-5 -34,-11 -50,-16l234 -257c-3,6 -5,12 -8,18l0 0c-43,98 -100,186 -176,255z"></path> <path class="fil10" d="M6416 9237l-951 -936c-7,16 -14,32 -22,47l-7 -92c3,-6 5,-12 8,-18l37 -41 934 1019 945 -1019 22 24c4,12 9,23 14,35l-6 95c-8,-16 -16,-33 -23,-50l-951 936z"></path> <path class="fil6" d="M6416 9346l-873 -408 -59 -91 -41 -499c8,-15 15,-31 22,-47l951 936 951 -936c7,17 15,34 23,50l-33 496 -60 91 -881 408z"></path> <path class="fil11" d="M7893 9331l-536 -421 -60 28 60 -91 33 -496 6 -95 0 0c46,104 107,196 189,266 45,38 97,70 155,93l76 83 77 633zm-2945 0l77 -633 81 -89c58,-24 109,-58 154,-98 76,-69 133,-157 176,-255l0 0 7 92 41 499 59 91 -59 -28 -536 421z"></path> <polygon class="fil5" points="7816,8634 7360,8134 6415,9152 5481,8134 5025,8634 4948,9267 5484,8847 6416,9282 7357,8847 7893,9267 "></polygon> <polygon class="fil5" points="7285,10516 8288,10516 8288,10401 7285,10401 "></polygon> <path class="fil2" d="M6464 3621c-1319,0 -1801,958 -1755,1740 21,351 172,813 172,813 18,24 79,9 75,-33 -114,-1080 591,-642 540,-1612 0,0 447,953 1715,698 -179,-80 -300,-308 -287,-480 0,0 92,180 221,280 180,139 437,121 597,-40l3 -3c134,306 193,806 137,1157 -7,42 59,57 76,33 0,0 165,-528 165,-879 1,-349 -162,-1674 -1659,-1674z"></path> <path class="fil7" d="M8152 6742c0,0 124,769 -1012,722 -17,-79 -91,-138 -180,-138l-249 0c-102,0 -184,77 -184,171 0,95 82,172 184,172l249 0c87,0 161,-57 179,-134 302,14 1075,-26 1145,-793l-132 0z"></path> <path class="fil7" d="M6414 3429l0 0c-1019,0 -1795,777 -1795,1736 0,133 16,263 47,387l235 0c-45,-137 -69,-283 -69,-434 0,-493 255,-930 647,-1201 131,-91 530,-181 928,-183l7 0c396,-1 790,85 919,172 401,270 663,712 663,1212 0,151 -25,297 -69,434l235 0c30,-124 47,-254 47,-387 0,-959 -777,-1736 -1795,-1736z"></path> <path class="fil12" d="M4747 6200c22,233 -86,432 -241,444 -154,13 -298,-165 -320,-397 -22,-233 86,-432 241,-445 155,-12 298,166 320,398z"></path> <path class="fil13" d="M4738 6622c7,80 -55,150 -140,157 -85,7 -159,-52 -167,-131l-81 -861c-8,-79 55,-149 139,-156 85,-7 160,51 167,131l82 860z"></path> <path class="fil7" d="M5043 6760c10,108 -75,203 -190,213 -115,9 -217,-70 -227,-178l-107 -1130c-10,-108 75,-203 190,-212 115,-10 217,70 227,178l107 1129z"></path> <path class="fil12" d="M8081 6200c-22,233 86,432 241,444 154,13 298,-165 320,-397 22,-233 -86,-432 -241,-445 -155,-12 -298,166 -320,398z"></path> <path class="fil13" d="M8090 6622c-7,80 55,150 140,157 85,7 159,-52 167,-131l81 -861c8,-79 -55,-149 -139,-156 -85,-7 -160,51 -167,131l-82 860z"></path> <path class="fil7" d="M7785 6760c-10,108 75,203 190,213 115,9 217,-70 227,-178l107 -1130c10,-108 -75,-203 -190,-212 -115,-10 -217,70 -227,178l-107 1129z"></path> <path class="fil14" d="M5697 1335c0,648 -525,1173 -1173,1173 -647,0 -1173,-525 -1173,-1173 0,-648 526,-1173 1173,-1173 648,0 1173,525 1173,1173z"></path> <path class="fil5" d="M4524 197c-627,0 -1137,511 -1137,1138 0,627 510,1138 1137,1138 628,0 1138,-511 1138,-1138 0,-627 -510,-1138 -1138,-1138zm0 2346c-666,0 -1208,-542 -1208,-1208 0,-666 542,-1208 1208,-1208 667,0 1209,542 1209,1208 0,666 -542,1208 -1209,1208z"></path> <path class="fil15" d="M5290 1335c0,423 -343,766 -766,766 -422,0 -765,-343 -765,-766 0,-423 343,-766 765,-766 423,0 766,343 766,766z"></path> <path class="fil7" d="M4524 2059c-399,0 -723,-325 -723,-724 0,-264 141,-495 353,-622 8,6 18,10 31,10 0,0 14,0 -75,70 -89,69 -81,165 -53,105 28,-61 53,-39 8,47 -44,86 24,59 47,111 23,53 31,-11 42,89 0,0 28,33 78,17 50,-17 -9,44 -61,94 -53,50 -36,66 -9,97 28,31 39,56 14,89 -25,33 39,44 56,64 16,19 14,83 -25,111 -39,27 19,88 11,174 -8,86 -6,122 33,128 39,5 -5,-75 11,-111 17,-36 36,25 75,-72 0,0 70,16 100,-89 0,0 61,-8 72,-42 11,-33 -3,-55 86,-127 89,-72 -61,-128 -141,-131 0,0 -30,13 22,-80 22,-40 -45,-31 -61,-67 -17,-36 -56,-77 -133,-69 -78,8 -100,36 -103,-11 -3,-47 33,-69 -5,-75 -39,-5 -20,-8 22,-47 0,0 -25,-17 -50,8 -25,25 -70,-14 -17,-69 53,-56 136,-97 131,8 -6,106 33,-47 33,-47 0,0 58,-75 130,-80 72,-6 28,-9 28,-34 0,-25 33,42 73,25 41,-16 -43,-22 -34,-50 8,-27 55,-19 75,17 19,36 41,-19 -9,-78 -50,-58 -41,-22 -88,3 -48,25 -28,39 -37,-3 -8,-41 -11,3 -33,-19 -22,-22 40,-12 72,-8 33,3 23,-20 23,-20l31 -14c0,0 21,31 46,25 25,-5 -16,-44 9,-38 24,5 58,-17 61,16 2,33 -20,78 72,28 18,-10 31,-17 39,-21 6,2 12,5 18,7 1,6 3,15 15,22 36,22 25,3 72,31 47,28 17,58 53,64 36,5 69,55 41,58 -28,3 -30,-31 -72,-36 -42,-6 17,14 44,39 28,25 28,54 0,66 -27,11 -7,75 38,67 46,-9 29,-56 54,-45 25,11 17,39 58,56 42,16 -5,39 45,41 50,3 74,23 30,42 -44,19 -22,36 -61,-11 -39,-47 -35,-2 -39,-47 -4,-45 -66,-3 -100,3 -33,5 -5,38 -36,44 -30,5 -44,-3 -36,69 9,72 -11,89 -44,89 -33,0 28,39 44,89 17,50 20,80 92,61 72,-20 50,-20 58,19 8,39 39,-22 44,17 6,39 -69,47 -27,72 41,25 11,83 -9,97 -19,14 -5,64 -47,86 -41,22 20,61 -5,86 -25,25 -92,55 -67,116 25,61 25,25 78,-19 52,-44 97,-119 122,-116 9,1 13,8 18,14 -129,199 -353,331 -608,331zm0 -1490c-422,0 -765,344 -765,766 0,422 343,766 765,766 423,0 766,-344 766,-766 0,-422 -343,-766 -766,-766z"></path> <path class="fil16" d="M3052 3680c0,647 -525,1173 -1173,1173 -648,0 -1173,-526 -1173,-1173 0,-648 525,-1173 1173,-1173 648,0 1173,525 1173,1173z"></path> <path class="fil5" d="M1879 2542c-627,0 -1138,510 -1138,1138 0,627 511,1137 1138,1137 627,0 1138,-510 1138,-1137 0,-628 -511,-1138 -1138,-1138zm0 2346c-666,0 -1208,-542 -1208,-1208 0,-667 542,-1209 1208,-1209 666,0 1208,542 1208,1209 0,666 -542,1208 -1208,1208z"></path> <path class="fil7" d="M2035 4006c0,56 -49,101 -109,101l-613 0 -164 106 45 -106c-60,0 -108,-45 -108,-101l-1 -339c0,-56 49,-101 109,-101l732 -1c60,0 108,46 109,101l0 340z"></path> <polygon class="fil5" points="1873,3717 1249,3718 1249,3665 1873,3665 "></polygon> <polygon class="fil5" points="1874,3814 1249,3815 1249,3762 1873,3762 "></polygon> <polygon class="fil5" points="1874,3911 1249,3912 1249,3859 1874,3859 "></polygon> <polygon class="fil5" points="1874,4008 1250,4009 1249,3957 1874,3956 "></polygon> <path class="fil5" d="M1761 3769c0,56 48,101 108,101l614 0 164 106 -46 -106c60,0 109,-46 109,-101l0 -340c0,-56 -49,-101 -109,-101l-732 1c-60,0 -108,45 -108,101l0 339z"></path> <polygon class="fil17" points="1922,3481 2546,3480 2546,3428 1922,3428 "></polygon> <polygon class="fil17" points="1922,3578 2546,3577 2546,3525 1922,3525 "></polygon> <polygon class="fil17" points="1922,3675 2546,3674 2546,3622 1922,3622 "></polygon> <polygon class="fil17" points="1922,3772 2546,3771 2546,3719 1922,3719 "></polygon> <path class="fil16" d="M12780 7358c0,647 -525,1173 -1173,1173 -648,0 -1173,-526 -1173,-1173 0,-648 525,-1173 1173,-1173 648,0 1173,525 1173,1173z"></path> <path class="fil5" d="M11607 6220c-627,0 -1138,510 -1138,1138 0,627 511,1137 1138,1137 627,0 1138,-510 1138,-1137 0,-628 -511,-1138 -1138,-1138zm0 2346c-666,0 -1208,-542 -1208,-1208 0,-667 542,-1209 1208,-1209 666,0 1208,542 1208,1209 0,666 -542,1208 -1208,1208z"></path> <path class="fil7" d="M11235 7772c-116,5 -214,-84 -219,-200 -5,-116 84,-214 200,-219 115,-5 213,84 219,200 5,115 -84,213 -200,219zm432 -111c7,-31 10,-62 10,-94l-70 -15c-1,-36 -8,-72 -20,-107l61 -39c-11,-29 -25,-57 -42,-84l-68 26c-10,-15 -22,-29 -34,-43 -13,-13 -27,-26 -41,-37l31 -66c-26,-19 -53,-35 -81,-48l-43 59c-34,-14 -70,-23 -106,-27l-10 -71c-32,-2 -63,-1 -94,3l-5 72c-36,6 -71,18 -104,34l-46 -53c-27,15 -53,33 -77,55l33 60 -1 1c-27,26 -50,55 -68,85l-65 -19c-15,28 -27,57 -36,88l60 31c-10,36 -14,74 -12,111l-64 18c3,32 9,63 18,93l65 -5c12,35 28,69 50,100l-43 49c10,12 20,25 31,36 11,12 22,23 34,33l52 -39c30,23 62,42 96,56l-9 65c29,11 60,19 91,23l23 -62c37,4 74,3 111,-4l28 61c30,-7 61,-17 90,-30l-15 -66c31,-16 61,-37 89,-62l1 -2 58 38c23,-23 43,-47 60,-73l-50 -50c18,-32 32,-66 41,-101l71 0z"></path> <path class="fil15" d="M11796 7181c-95,8 -178,-63 -186,-158 -8,-95 63,-178 158,-186 94,-8 178,63 186,158 7,95 -63,178 -158,186zm352 -104c5,-26 6,-52 6,-78l-59 -10c-2,-30 -8,-59 -19,-88l49 -34c-10,-23 -22,-46 -37,-67l-56 23c-9,-12 -18,-23 -29,-34 -11,-11 -22,-20 -34,-29l23 -56c-22,-15 -45,-27 -68,-37l-34 50c-29,-11 -58,-17 -88,-19l-11 -58c-25,-1 -51,1 -77,6l-1 58c-30,7 -58,17 -85,32l-39 -42c-22,13 -43,29 -62,47l29 49 -1 1c-21,22 -39,46 -53,71l-54 -13c-12,23 -21,48 -27,73l50 24c-7,30 -9,61 -7,91l-51 17c3,26 8,52 17,76l53 -6c11,28 26,56 45,80l-34 42c8,10 17,20 26,29 9,10 19,18 29,26l42 -34c25,19 52,33 80,44l-5 54c24,8 50,13 76,16l17 -52c30,2 61,0 91,-7l24 50c25,-7 50,-16 73,-27l-14 -55c26,-14 50,-32 71,-53l1 -1 49 29c18,-20 34,-41 47,-62l-42 -39c14,-27 24,-56 30,-85l59 -2z"></path> <path class="fil18" d="M12012 7812c-88,3 -162,-67 -165,-155 -3,-89 66,-163 154,-166 89,-3 163,66 166,155 3,88 -66,163 -155,166zm332 -81c6,-24 9,-48 9,-72l-54 -12c-1,-28 -5,-56 -14,-82l47 -30c-8,-22 -19,-44 -31,-64l-53 19c-8,-12 -16,-23 -26,-33 -10,-10 -20,-20 -30,-29l23 -50c-19,-15 -40,-27 -61,-37l-34 44c-26,-11 -53,-18 -81,-22l-7 -54c-24,-2 -48,-1 -72,2l-4 55c-27,4 -54,13 -80,25l-35 -41c-20,11 -40,25 -59,41l25 47 -1 1c-21,19 -38,41 -53,64l-49 -15c-12,21 -21,43 -28,66l45 25c-8,28 -11,56 -10,85l-49 13c2,24 6,48 13,72l50 -4c8,27 21,53 37,77l-33 37c7,10 15,19 23,28 8,9 17,18 26,26l40 -30c23,19 47,33 73,44l-8 50c23,8 47,15 70,18l18 -47c28,3 57,3 85,-2l21 47c23,-5 47,-12 69,-22l-11 -51c25,-12 48,-28 69,-47l1 -1 44 29c18,-17 33,-36 46,-55l-38 -39c15,-24 26,-50 33,-77l54 1z"></path> <path class="fil19" d="M2532 1440c-27,82 -100,133 -164,116 -64,-18 -95,-99 -68,-181 27,-81 100,-133 164,-115 64,18 94,98 68,180zm128 -285c-26,-3 -50,15 -53,41l-4 35c-32,-47 -76,-81 -131,-94 -129,-30 -262,69 -296,221 -35,152 41,299 170,328 74,17 164,-19 209,-77 -2,26 15,55 37,75 34,26 59,31 83,31 91,2 196,-39 255,-245 0,0 35,-125 13,-223 -52,-222 -238,-342 -478,-342 -291,0 -526,235 -526,526 0,291 235,527 526,527 111,0 221,-22 312,-70 90,-48 48,-154 -23,-113 -77,43 -202,73 -292,73 -214,0 -407,-203 -407,-417 0,-214 193,-415 407,-415 186,0 358,81 392,291 2,71 -17,148 -27,176 -23,64 -58,141 -118,145 -19,2 -44,0 -65,-19 -5,-5 -17,-24 -17,-41 -2,-79 75,-360 75,-360 3,-26 -15,-50 -42,-53z"></path> <path class="fil16" d="M2398 7369c0,648 -525,1173 -1173,1173 -647,0 -1173,-525 -1173,-1173 0,-647 526,-1173 1173,-1173 648,0 1173,526 1173,1173z"></path> <path class="fil5" d="M1225 6232c-627,0 -1137,510 -1137,1137 0,628 510,1138 1137,1138 628,0 1138,-510 1138,-1138 0,-627 -510,-1137 -1138,-1137zm0 2346c-666,0 -1208,-542 -1208,-1209 0,-666 542,-1208 1208,-1208 667,0 1209,542 1209,1208 0,667 -542,1209 -1209,1209z"></path> <path class="fil1" d="M1603 6984l171 -210 -61 -60 -209 171 19 19 -263 263 -187 -186c-4,-5 -9,-9 -15,-12 28,-74 13,-161 -47,-221 -59,-59 -145,-75 -218,-48l79 80c35,34 35,90 0,124 -34,34 -89,34 -124,0l-80 -80c-26,74 -10,160 49,219 59,59 146,75 220,47 4,5 7,10 12,15l187 187 -232 231c-33,33 -47,74 -30,90 17,17 57,4 90,-29l232 -232 192 191c34,35 90,35 124,0 34,-34 34,-89 0,-124l-192 -191 263 -264 20 20z"></path> <path class="fil7" d="M658 8004c-57,56 -142,63 -190,15 -48,-48 -41,-133 16,-189l382 -383c57,-56 142,-63 190,-15 48,48 41,133 -16,189l-382 383z"></path> <path class="fil7" d="M1967 7825c57,56 64,141 16,189 -49,48 -133,41 -190,-15l-383 -383c-56,-57 -63,-141 -15,-189 48,-48 133,-42 189,15l383 383z"></path> <path class="fil19" d="M12775 5545l-705 0 0 -501 705 0 0 501zm-103 228l-35 0 -155 -153 190 0 0 153zm184 -814l-875 0 0 648 413 0 262 258 65 0 0 -258 135 0 0 -648z"></path> <path class="fil19" d="M6819 569l-272 -204 272 -292 0 496zm-666 -1l170 -149 194 1 166 148 -530 0zm-140 1l0 -506 280 302 -278 204 -2 0zm739 -507l-264 277 -136 0 -261 -277 661 0zm-792 -62l0 624 912 0 0 -624 -912 0z"></path> <path class="fil19" d="M612 5570l0 0c365,-464 176,-500 -16,-620l0 1c-15,-3 -63,40 -110,100 -47,60 -78,116 -72,130l8 3c39,11 181,67 37,249 -1,2 -4,6 -8,10l-5 6c-3,5 -6,9 -8,11 -143,181 -230,56 -251,22l-4 -8c-16,-2 -63,40 -110,100 -47,60 -78,116 -72,130l-1 1c162,159 240,334 607,-129l0 0 2 -2 0 -1 1 -1 2 -2z"></path> <path class="fil19" d="M10031 1636c14,0 27,1 42,2 14,1 28,3 44,5 3,16 5,30 6,45 1,14 2,27 2,41 0,13 -1,27 -2,41 -1,15 -3,29 -6,45 -16,3 -30,5 -44,6 -15,1 -28,2 -42,2 -13,0 -27,-1 -41,-2 -15,-1 -29,-3 -45,-6 -3,-16 -5,-30 -6,-45 -1,-14 -2,-28 -2,-41 0,-14 1,-27 2,-41 1,-15 3,-29 6,-45 16,-2 30,-4 45,-5 14,-1 28,-2 41,-2zm-160 -375c-4,-9 -8,-19 -12,-30 -5,-12 -9,-24 -12,-36 -3,-12 -6,-24 -9,-36 -3,-11 -4,-22 -5,-32 19,-7 36,-13 52,-18 16,-4 31,-8 45,-11 15,-2 29,-4 43,-6 15,-1 29,-2 45,-2 81,0 143,19 184,56 41,37 62,88 62,153 0,30 -6,56 -16,78 -11,22 -23,41 -39,57 -15,15 -31,28 -48,38 -16,10 -32,18 -45,24l0 92c-15,3 -29,4 -43,6 -15,1 -27,2 -39,2 -12,0 -25,-1 -39,-2 -14,-2 -27,-3 -41,-6l0 -190c18,-2 35,-5 52,-9 17,-5 32,-10 45,-18 13,-7 23,-17 32,-28 8,-11 12,-24 12,-40 0,-22 -9,-40 -26,-52 -16,-11 -39,-17 -67,-17 -13,0 -25,0 -35,1 -10,1 -20,3 -29,5 -10,3 -21,6 -31,9 -11,3 -23,7 -36,12z"></path> <path class="fil19" d="M10429 1980c8,0 18,0 27,1 9,1 19,2 29,4 2,10 3,19 4,29 1,9 1,18 1,27 0,9 0,18 -1,27 -1,9 -2,19 -4,29 -10,2 -20,3 -29,4 -9,1 -19,1 -27,1 -9,0 -18,0 -28,-1 -9,-1 -19,-2 -29,-4 -1,-10 -3,-20 -4,-29 -1,-9 -1,-18 -1,-27 0,-9 0,-18 1,-27 1,-10 3,-19 4,-29 10,-2 20,-3 29,-4 10,-1 19,-1 28,-1zm-105 -246c-3,-6 -5,-12 -8,-20 -3,-7 -6,-15 -8,-23 -2,-8 -4,-16 -6,-23 -2,-8 -3,-15 -3,-22 12,-4 23,-8 34,-11 10,-3 20,-6 30,-8 9,-1 19,-3 28,-4 9,0 19,-1 29,-1 53,0 94,12 121,37 27,24 40,57 40,100 0,20 -3,37 -10,51 -7,15 -16,27 -25,37 -10,11 -21,19 -32,26 -11,6 -21,12 -30,15l0 61c-9,1 -19,2 -28,3 -9,1 -18,1 -25,1 -8,0 -17,0 -26,-1 -9,-1 -18,-2 -27,-3l0 -125c12,-1 23,-3 34,-6 11,-3 21,-7 30,-12 8,-5 15,-11 20,-18 6,-7 8,-16 8,-26 0,-15 -5,-26 -16,-34 -11,-8 -26,-12 -45,-12 -8,0 -15,1 -22,1 -7,1 -13,2 -20,4 -6,1 -13,3 -20,5 -7,2 -15,5 -23,8z"></path> <path class="fil14" d="M12146 3680c0,647 -525,1173 -1173,1173 -648,0 -1173,-526 -1173,-1173 0,-648 525,-1173 1173,-1173 648,0 1173,525 1173,1173z"></path> <path class="fil5" d="M10973 2542c-627,0 -1138,510 -1138,1138 0,627 511,1137 1138,1137 627,0 1138,-510 1138,-1137 0,-628 -511,-1138 -1138,-1138zm0 2346c-666,0 -1208,-542 -1208,-1208 0,-667 542,-1209 1208,-1209 666,0 1208,542 1208,1209 0,666 -542,1208 -1208,1208z"></path> <path class="fil20" d="M11320 4465l-388 -640c-11,-18 36,-38 58,-58l421 693c-28,10 -80,24 -91,5z"></path> <path class="fil20" d="M11110 3692c35,-21 44,-41 58,-19l389 638c14,23 12,57 -23,78l-15 9 -424 -697 15 -9z"></path> <path class="fil19" d="M11411 4460l-421 -693c5,-5 11,-10 18,-14l87 -52 424 697 -87 52c-7,4 -14,7 -21,10z"></path> <path class="fil14" d="M10808 3765c-139,0 -274,-70 -350,-197 -117,-193 -55,-444 139,-561 66,-40 138,-59 210,-59 139,0 273,71 350,198 116,193 54,444 -139,560 -66,40 -138,59 -210,59zm-3 -776c-10,0 -21,0 -32,1 -208,16 -364,179 -350,365 0,8 2,16 3,25 1,-175 153,-325 351,-340 11,0 22,-1 33,-1 184,0 339,120 365,283l0 0c0,-8 0,-16 -1,-25 -13,-176 -175,-308 -369,-308z"></path> <path class="fil20" d="M11018 3706c-193,117 -444,55 -560,-138 -117,-193 -55,-444 139,-561 193,-116 444,-54 560,139 116,193 54,444 -139,560zm45 73c232,-141 308,-444 167,-677 -141,-234 -444,-309 -677,-168 -234,141 -309,444 -168,677 140,234 444,309 678,168z"></path> <path class="fil5" d="M10426 3380c-1,-9 -3,-17 -3,-25 -14,-186 142,-349 350,-365 11,-1 22,-1 32,-1 194,0 356,132 369,308 1,9 1,17 1,25 -26,-163 -181,-283 -365,-283 -11,0 -22,1 -33,1 -198,15 -350,165 -351,340z"></path> <path class="fil14" d="M9444 1282c0,648 -525,1173 -1173,1173 -648,0 -1173,-525 -1173,-1173 0,-648 525,-1173 1173,-1173 648,0 1173,525 1173,1173z"></path> <path class="fil5" d="M8271 144c-628,0 -1138,511 -1138,1138 0,628 510,1138 1138,1138 627,0 1138,-510 1138,-1138 0,-627 -511,-1138 -1138,-1138zm0 2346c-666,0 -1208,-542 -1208,-1208 0,-666 542,-1208 1208,-1208 666,0 1208,542 1208,1208 0,666 -542,1208 -1208,1208z"></path> <path class="fil7" d="M8880 1335c-106,5 -141,-44 -153,-89 89,-22 162,-96 194,-194l2 0c28,0 50,-37 50,-82 0,-39 -16,-70 -37,-80 -20,-150 -131,-266 -265,-266 -134,0 -245,116 -265,266 -21,10 -37,42 -37,80 0,45 23,82 50,82l2 0c32,98 105,172 194,194 -12,45 -47,94 -153,89 -121,-7 -222,51 -228,151l0 187 875 0 -1 -188c-6,-100 -107,-157 -228,-150z"></path> <path class="fil15" d="M8154 1521c-106,6 -141,-44 -153,-88 90,-23 162,-97 194,-195l2 0c28,0 50,-36 50,-82 0,-38 -16,-70 -37,-79 -20,-151 -131,-266 -265,-266 -134,0 -245,115 -265,266 -21,9 -37,41 -37,79 0,46 23,83 51,83l1 -1c32,98 105,172 194,195 -12,44 -47,94 -152,88 -122,-6 -223,51 -229,151l0 187 875 0 0 -187c-6,-100 -108,-158 -229,-151z"></path> </g> </g> </svg> 